{
    "asset" : {
        "generator" : "Khronos glTF Blender I/O v1.2.75",
        "version" : "2.0"
    },
    "scene" : 0,
    "scenes" : [
        {
            "name" : "Scene",
            "nodes" : [
                5
            ]
        }
    ],
    "nodes" : [
        {
            "name" : "node_id30",
            "scale" : [
                450.61248779296875,
                450.61248779296875,
                450.61248779296875
            ],
            "translation" : [
                0.31667360663414,
                251.8546905517578,
                25.358619689941406
            ]
        },
        {
            "mesh" : 0,
            "name" : "node_id32"
        },
        {
            "mesh" : 1,
            "name" : "node_id34"
        },
        {
            "children" : [
                1,
                2
            ],
            "name" : "node_id31",
            "scale" : [
                4.506124973297119,
                4.506124973297119,
                4.506124973297119
            ],
            "translation" : [
                0.31667360663414,
                251.8546905517578,
                25.358619689941406
            ]
        },
        {
            "children" : [
                0,
                3
            ],
            "name" : "node_id36",
            "scale" : [
                0.0010000000474974513,
                0.0010000000474974513,
                0.0010000000474974513
            ]
        },
        {
            "children" : [
                4
            ],
            "name" : "root",
            "rotation" : [
                0.7071068286895752,
                0,
                0,
                0.7071067094802856
            ],
            "scale" : [
                3.7167701721191406,
                3.7167701721191406,
                3.7167701721191406
            ]
        }
    ],
    "materials" : [
        {
            "doubleSided" : true,
            "emissiveFactor" : [
                0,
                0,
                0
            ],
            "name" : "Material_48",
            "pbrMetallicRoughness" : {
                "baseColorTexture" : {
                    "index" : 0,
                    "texCoord" : 0
                },
                "metallicFactor" : 1,
                "roughnessFactor" : 0
            }
        },
        {
            "doubleSided" : true,
            "emissiveFactor" : [
                0,
                0,
                0
            ],
            "name" : "Material_49",
            "pbrMetallicRoughness" : {
                "baseColorTexture" : {
                    "index" : 1,
                    "texCoord" : 0
                },
                "metallicFactor" : 1,
                "roughnessFactor" : 0
            }
        }
    ],
    "meshes" : [
        {
            "name" : "mesh_id33",
            "primitives" : [
                {
                    "attributes" : {
                        "POSITION" : 0,
                        "NORMAL" : 1,
                        "TEXCOORD_0" : 2
                    },
                    "indices" : 3,
                    "material" : 0
                }
            ]
        },
        {
            "name" : "mesh_id35",
            "primitives" : [
                {
                    "attributes" : {
                        "POSITION" : 4,
                        "NORMAL" : 5,
                        "TEXCOORD_0" : 6
                    },
                    "indices" : 7,
                    "material" : 1
                }
            ]
        }
    ],
    "textures" : [
        {
            "source" : 0
        },
        {
            "source" : 1
        }
    ],
    "images" : [
        {
            "bufferView" : 4,
            "mimeType" : "image/png",
            "name" : "5"
        },
        {
            "bufferView" : 9,
            "mimeType" : "image/png",
            "name" : "9"
        }
    ],
    "accessors" : [
        {
            "bufferView" : 0,
            "componentType" : 5126,
            "count" : 5238,
            "max" : [
                7.927486896514893,
                28.038928985595703,
                51.18397903442383
            ],
            "min" : [
                -9.7368803024292,
                -29.198165893554688,
                -62.43915939331055
            ],
            "type" : "VEC3"
        },
        {
            "bufferView" : 1,
            "componentType" : 5126,
            "count" : 5238,
            "type" : "VEC3"
        },
        {
            "bufferView" : 2,
            "componentType" : 5126,
            "count" : 5238,
            "type" : "VEC2"
        },
        {
            "bufferView" : 3,
            "componentType" : 5123,
            "count" : 7254,
            "type" : "SCALAR"
        },
        {
            "bufferView" : 5,
            "componentType" : 5126,
            "count" : 7195,
            "max" : [
                10.882901191711426,
                31.038026809692383,
                44.57761764526367
            ],
            "min" : [
                -11.023348808288574,
                -13.107736587524414,
                -50.2730712890625
            ],
            "type" : "VEC3"
        },
        {
            "bufferView" : 6,
            "componentType" : 5126,
            "count" : 7195,
            "type" : "VEC3"
        },
        {
            "bufferView" : 7,
            "componentType" : 5126,
            "count" : 7195,
            "type" : "VEC2"
        },
        {
            "bufferView" : 8,
            "componentType" : 5123,
            "count" : 10617,
            "type" : "SCALAR"
        }
    ],
    "bufferViews" : [
        {
            "buffer" : 0,
            "byteLength" : 62856,
            "byteOffset" : 0
        },
        {
            "buffer" : 0,
            "byteLength" : 62856,
            "byteOffset" : 62856
        },
        {
            "buffer" : 0,
            "byteLength" : 41904,
            "byteOffset" : 125712
        },
        {
            "buffer" : 0,
            "byteLength" : 14508,
            "byteOffset" : 167616
        },
        {
            "buffer" : 0,
            "byteLength" : 1112174,
            "byteOffset" : 182124
        },
        {
            "buffer" : 0,
            "byteLength" : 86340,
            "byteOffset" : 1294300
        },
        {
            "buffer" : 0,
            "byteLength" : 86340,
            "byteOffset" : 1380640
        },
        {
            "buffer" : 0,
            "byteLength" : 57560,
            "byteOffset" : 1466980
        },
        {
            "buffer" : 0,
            "byteLength" : 21234,
            "byteOffset" : 1524540
        },
        {
            "buffer" : 0,
            "byteLength" : 739729,
            "byteOffset" : 1545776
        }
    ],
    "buffers" : [
        {
            "byteLength" : 2285508,
            "uri" : "data:application/octet-stream;base64,"
        }
    ]
}
