{
    "asset" : {
        "generator" : "Khronos glTF Blender I/O v1.2.75",
        "version" : "2.0"
    },
    "scene" : 0,
    "scenes" : [
        {
            "name" : "Scene",
            "nodes" : [
                0
            ]
        }
    ],
    "nodes" : [
        {
            "mesh" : 0,
            "name" : "Cube.002",
            "translation" : [
                0.00903535820543766,
                -0.12053897231817245,
                0
            ]
        }
    ],
    "animations" : [
        {
            "channels" : [
                {
                    "sampler" : 0,
                    "target" : {
                        "node" : 0,
                        "path" : "translation"
                    }
                },
                {
                    "sampler" : 1,
                    "target" : {
                        "node" : 0,
                        "path" : "rotation"
                    }
                },
                {
                    "sampler" : 2,
                    "target" : {
                        "node" : 0,
                        "path" : "scale"
                    }
                }
            ],
            "name" : "Cube.002|Cube.002|Cube.001Action|Cube.002|Cube.001Action",
            "samplers" : [
                {
                    "input" : 4,
                    "interpolation" : "LINEAR",
                    "output" : 5
                },
                {
                    "input" : 4,
                    "interpolation" : "LINEAR",
                    "output" : 6
                },
                {
                    "input" : 4,
                    "interpolation" : "LINEAR",
                    "output" : 7
                }
            ]
        }
    ],
    "materials" : [
        {
            "doubleSided" : true,
            "emissiveFactor" : [
                0,
                0,
                0
            ],
            "name" : "handgun",
            "normalTexture" : {
                "index" : 0,
                "texCoord" : 0
            },
            "pbrMetallicRoughness" : {
                "baseColorTexture" : {
                    "index" : 1,
                    "texCoord" : 0
                },
                "metallicFactor" : 0,
                "roughnessFactor" : 0.690034806728363
            }
        }
    ],
    "meshes" : [
        {
            "name" : "Mesh",
            "primitives" : [
                {
                    "attributes" : {
                        "POSITION" : 0,
                        "NORMAL" : 1,
                        "TEXCOORD_0" : 2
                    },
                    "indices" : 3,
                    "material" : 0
                }
            ]
        }
    ],
    "textures" : [
        {
            "source" : 0
        },
        {
            "source" : 1
        }
    ],
    "images" : [
        {
            "bufferView" : 4,
            "mimeType" : "image/jpeg",
            "name" : "handgun_N"
        },
        {
            "bufferView" : 5,
            "mimeType" : "image/jpeg",
            "name" : "handgun_C"
        }
    ],
    "accessors" : [
        {
            "bufferView" : 0,
            "componentType" : 5126,
            "count" : 17069,
            "max" : [
                1.4836804866790771,
                0.7657902240753174,
                0.12390205264091492
            ],
            "min" : [
                -0.36652863025665283,
                -0.49047207832336426,
                -0.12610825896263123
            ],
            "type" : "VEC3"
        },
        {
            "bufferView" : 1,
            "componentType" : 5126,
            "count" : 17069,
            "type" : "VEC3"
        },
        {
            "bufferView" : 2,
            "componentType" : 5126,
            "count" : 17069,
            "type" : "VEC2"
        },
        {
            "bufferView" : 3,
            "componentType" : 5123,
            "count" : 82224,
            "type" : "SCALAR"
        },
        {
            "bufferView" : 6,
            "componentType" : 5126,
            "count" : 5,
            "max" : [
                0.20833333333333334
            ],
            "min" : [
                0.041666666666666664
            ],
            "type" : "SCALAR"
        },
        {
            "bufferView" : 7,
            "componentType" : 5126,
            "count" : 5,
            "type" : "VEC3"
        },
        {
            "bufferView" : 8,
            "componentType" : 5126,
            "count" : 5,
            "type" : "VEC4"
        },
        {
            "bufferView" : 9,
            "componentType" : 5126,
            "count" : 5,
            "type" : "VEC3"
        }
    ],
    "bufferViews" : [
        {
            "buffer" : 0,
            "byteLength" : 204828,
            "byteOffset" : 0
        },
        {
            "buffer" : 0,
            "byteLength" : 204828,
            "byteOffset" : 204828
        },
        {
            "buffer" : 0,
            "byteLength" : 136552,
            "byteOffset" : 409656
        },
        {
            "buffer" : 0,
            "byteLength" : 164448,
            "byteOffset" : 546208
        },
        {
            "buffer" : 0,
            "byteLength" : 191902,
            "byteOffset" : 710656
        },
        {
            "buffer" : 0,
            "byteLength" : 808058,
            "byteOffset" : 902560
        },
        {
            "buffer" : 0,
            "byteLength" : 20,
            "byteOffset" : 1710620
        },
        {
            "buffer" : 0,
            "byteLength" : 60,
            "byteOffset" : 1710640
        },
        {
            "buffer" : 0,
            "byteLength" : 80,
            "byteOffset" : 1710700
        },
        {
            "buffer" : 0,
            "byteLength" : 60,
            "byteOffset" : 1710780
        }
    ],
    "buffers" : [
        {
            "byteLength" : 1710840,
            "uri" : "data:application/octet-stream;base64,"
        }
    ]
}
