{
    "asset" : {
        "generator" : "Khronos glTF Blender I/O v3.2.40",
        "version" : "2.0"
    },
    "scene" : 0,
    "scenes" : [
        {
            "name" : "Scene",
            "nodes" : [
                0
            ]
        }
    ],
    "nodes" : [
        {
            "mesh" : 0,
            "name" : "Cube.002",
            "translation" : [
                0.00903535820543766,
                -0.12053897231817245,
                0
            ]
        }
    ],
    "materials" : [
        {
            "doubleSided" : true,
            "name" : "handgun",
            "normalTexture" : {
                "index" : 0
            },
            "pbrMetallicRoughness" : {
                "baseColorTexture" : {
                    "index" : 1
                },
                "metallicFactor" : 0,
                "roughnessFactor" : 0.690034806728363
            }
        }
    ],
    "meshes" : [
        {
            "name" : "Mesh",
            "primitives" : [
                {
                    "attributes" : {
                        "POSITION" : 0,
                        "NORMAL" : 1,
                        "TEXCOORD_0" : 2
                    },
                    "indices" : 3,
                    "material" : 0
                }
            ]
        }
    ],
    "textures" : [
        {
            "sampler" : 0,
            "source" : 0
        },
        {
            "sampler" : 0,
            "source" : 1
        }
    ],
    "images" : [
        {
            "bufferView" : 4,
            "mimeType" : "image/jpeg",
            "name" : "Image_0"
        },
        {
            "bufferView" : 5,
            "mimeType" : "image/jpeg",
            "name" : "Image_1"
        }
    ],
    "accessors" : [
        {
            "bufferView" : 0,
            "componentType" : 5126,
            "count" : 27110,
            "max" : [
                1.4836804866790771,
                0.7657902240753174,
                0.12390205264091492
            ],
            "min" : [
                -0.36652863025665283,
                -0.49047207832336426,
                -0.12610825896263123
            ],
            "type" : "VEC3"
        },
        {
            "bufferView" : 1,
            "componentType" : 5126,
            "count" : 27110,
            "type" : "VEC3"
        },
        {
            "bufferView" : 2,
            "componentType" : 5126,
            "count" : 27110,
            "type" : "VEC2"
        },
        {
            "bufferView" : 3,
            "componentType" : 5123,
            "count" : 82224,
            "type" : "SCALAR"
        }
    ],
    "bufferViews" : [
        {
            "buffer" : 0,
            "byteLength" : 325320,
            "byteOffset" : 0
        },
        {
            "buffer" : 0,
            "byteLength" : 325320,
            "byteOffset" : 325320
        },
        {
            "buffer" : 0,
            "byteLength" : 216880,
            "byteOffset" : 650640
        },
        {
            "buffer" : 0,
            "byteLength" : 164448,
            "byteOffset" : 867520
        },
        {
            "buffer" : 0,
            "byteLength" : 191902,
            "byteOffset" : 1031968
        },
        {
            "buffer" : 0,
            "byteLength" : 808058,
            "byteOffset" : 1223872
        }
    ],
    "samplers" : [
        {
            "magFilter" : 9729,
            "minFilter" : 9987
        }
    ],
    "buffers" : [
        {
            "byteLength" : 2031932,
            "uri" : "data:application/octet-stream;base64,"
        }
    ]
}
