{
    "asset" : {
        "generator" : "Khronos glTF Blender I/O v1.8.19",
        "version" : "2.0"
    },
    "scene" : 0,
    "scenes" : [
        {
            "name" : "Scene",
            "nodes" : [
                2,
                4
            ]
        }
    ],
    "nodes" : [
        {
            "name" : "Lego_2x2.stl"
        },
        {
            "name" : "M.stl"
        },
        {
            "children" : [
                0,
                1
            ],
            "name" : "Group",
            "rotation" : [
                0.7071068286895752,
                0,
                0,
                0.7071067094802856
            ],
            "translation" : [
                -3.9790000915527344,
                0,
                1.3128999471664429
            ]
        },
        {
            "mesh" : 0,
            "name" : "Lego_2x2",
            "translation" : [
                -3.995800018310547,
                1.1793999671936035,
                0
            ]
        },
        {
            "children" : [
                3
            ],
            "mesh" : 1,
            "name" : "Box",
            "rotation" : [
                0.7071068286895752,
                0,
                0,
                0.7071067094802856
            ],
            "translation" : [
                0.01679999940097332,
                0,
                -0.3790000081062317
            ]
        }
    ],
    "materials" : [
        {
            "doubleSided" : true,
            "name" : "b0b0b0",
            "pbrMetallicRoughness" : {
                "baseColorFactor" : [
                    0.6901960968971252,
                    0.6901960968971252,
                    0.6901960968971252,
                    1
                ],
                "roughnessFactor" : 0.4527442753314972
            }
        }
    ],
    "meshes" : [
        {
            "name" : "Lego_2x2-mesh",
            "primitives" : [
                {
                    "attributes" : {
                        "POSITION" : 0,
                        "NORMAL" : 1
                    },
                    "indices" : 2,
                    "material" : 0
                }
            ]
        },
        {
            "name" : "Box-mesh",
            "primitives" : [
                {
                    "attributes" : {
                        "POSITION" : 3,
                        "NORMAL" : 4,
                        "TEXCOORD_0" : 5
                    },
                    "indices" : 6,
                    "material" : 0
                }
            ]
        }
    ],
    "accessors" : [
        {
            "bufferView" : 0,
            "componentType" : 5126,
            "count" : 672,
            "max" : [
                15.899999618530273,
                7.900000095367432,
                5.699999809265137
            ],
            "min" : [
                -15.899999618530273,
                -7.900000095367432,
                -5.699999809265137
            ],
            "type" : "VEC3"
        },
        {
            "bufferView" : 1,
            "componentType" : 5126,
            "count" : 672,
            "type" : "VEC3"
        },
        {
            "bufferView" : 2,
            "componentType" : 5123,
            "count" : 4020,
            "type" : "SCALAR"
        },
        {
            "bufferView" : 3,
            "componentType" : 5126,
            "count" : 24,
            "max" : [
                0.5,
                0.5,
                0.5
            ],
            "min" : [
                -0.5,
                -0.5,
                -0.5
            ],
            "type" : "VEC3"
        },
        {
            "bufferView" : 4,
            "componentType" : 5126,
            "count" : 24,
            "type" : "VEC3"
        },
        {
            "bufferView" : 5,
            "componentType" : 5126,
            "count" : 24,
            "type" : "VEC2"
        },
        {
            "bufferView" : 6,
            "componentType" : 5123,
            "count" : 36,
            "type" : "SCALAR"
        }
    ],
    "bufferViews" : [
        {
            "buffer" : 0,
            "byteLength" : 8064,
            "byteOffset" : 0
        },
        {
            "buffer" : 0,
            "byteLength" : 8064,
            "byteOffset" : 8064
        },
        {
            "buffer" : 0,
            "byteLength" : 8040,
            "byteOffset" : 16128
        },
        {
            "buffer" : 0,
            "byteLength" : 288,
            "byteOffset" : 24168
        },
        {
            "buffer" : 0,
            "byteLength" : 288,
            "byteOffset" : 24456
        },
        {
            "buffer" : 0,
            "byteLength" : 192,
            "byteOffset" : 24744
        },
        {
            "buffer" : 0,
            "byteLength" : 72,
            "byteOffset" : 24936
        }
    ],
    "buffers" : [
        {
            "byteLength" : 25008,
            "uri" : "data:application/octet-stream;base64,"
        }
    ]
}
