{
    "asset" : {
        "generator" : "Khronos glTF Blender I/O v1.2.75",
        "version" : "2.0"
    },
    "scene" : 0,
    "scenes" : [
        {
            "name" : "Scene",
            "nodes" : [
                3
            ]
        }
    ],
    "nodes" : [
        {
            "mesh" : 0,
            "name" : "node_id40",
            "scale" : [
                3.0098674297332764,
                3.0098674297332764,
                3.0098674297332764
            ],
            "translation" : [
                15.096705436706543,
                256.06951904296875,
                251.38121032714844
            ]
        },
        {
            "mesh" : 1,
            "name" : "node_id42",
            "scale" : [
                3.0098674297332764,
                3.0098674297332764,
                3.0098674297332764
            ],
            "translation" : [
                15.096705436706543,
                256.06951904296875,
                251.38121032714844
            ]
        },
        {
            "children" : [
                0,
                1
            ],
            "name" : "node_id44",
            "scale" : [
                0.0010000000474974513,
                0.0010000000474974513,
                0.0010000000474974513
            ]
        },
        {
            "children" : [
                2
            ],
            "name" : "root",
            "rotation" : [
                0.7071068286895752,
                0,
                0,
                0.7071067094802856
            ],
            "scale" : [
                -2.7927470207214355,
                -2.7927470207214355,
                -2.7927470207214355
            ]
        }
    ],
    "materials" : [
        {
            "doubleSided" : true,
            "emissiveFactor" : [
                0,
                0,
                0
            ],
            "name" : "Material_60",
            "pbrMetallicRoughness" : {
                "baseColorTexture" : {
                    "index" : 0,
                    "texCoord" : 0
                },
                "metallicFactor" : 1,
                "roughnessFactor" : 0
            }
        },
        {
            "doubleSided" : true,
            "emissiveFactor" : [
                0,
                0,
                0
            ],
            "name" : "Material_61",
            "pbrMetallicRoughness" : {
                "baseColorTexture" : {
                    "index" : 1,
                    "texCoord" : 0
                },
                "metallicFactor" : 1,
                "roughnessFactor" : 0
            }
        }
    ],
    "meshes" : [
        {
            "name" : "mesh_id41",
            "primitives" : [
                {
                    "attributes" : {
                        "POSITION" : 0,
                        "NORMAL" : 1,
                        "TEXCOORD_0" : 2
                    },
                    "indices" : 3,
                    "material" : 0
                }
            ]
        },
        {
            "name" : "mesh_id43",
            "primitives" : [
                {
                    "attributes" : {
                        "POSITION" : 4,
                        "NORMAL" : 5,
                        "TEXCOORD_0" : 6
                    },
                    "indices" : 7,
                    "material" : 1
                }
            ]
        }
    ],
    "textures" : [
        {
            "source" : 0
        },
        {
            "source" : 1
        }
    ],
    "images" : [
        {
            "bufferView" : 4,
            "mimeType" : "image/png",
            "name" : "9"
        },
        {
            "bufferView" : 9,
            "mimeType" : "image/png",
            "name" : "12"
        }
    ],
    "accessors" : [
        {
            "bufferView" : 0,
            "componentType" : 5126,
            "count" : 658,
            "max" : [
                36.61492919921875,
                43.37944030761719,
                -34.63884353637695
            ],
            "min" : [
                -38.446983337402344,
                -12.179405212402344,
                -159.79165649414062
            ],
            "type" : "VEC3"
        },
        {
            "bufferView" : 1,
            "componentType" : 5126,
            "count" : 658,
            "type" : "VEC3"
        },
        {
            "bufferView" : 2,
            "componentType" : 5126,
            "count" : 658,
            "type" : "VEC2"
        },
        {
            "bufferView" : 3,
            "componentType" : 5123,
            "count" : 906,
            "type" : "SCALAR"
        },
        {
            "bufferView" : 5,
            "componentType" : 5126,
            "count" : 2016,
            "max" : [
                40.69129180908203,
                52.155731201171875,
                1.5345569849014282
            ],
            "min" : [
                -50.72260665893555,
                -52.20191955566406,
                -168.5725860595703
            ],
            "type" : "VEC3"
        },
        {
            "bufferView" : 6,
            "componentType" : 5126,
            "count" : 2016,
            "type" : "VEC3"
        },
        {
            "bufferView" : 7,
            "componentType" : 5126,
            "count" : 2016,
            "type" : "VEC2"
        },
        {
            "bufferView" : 8,
            "componentType" : 5123,
            "count" : 2772,
            "type" : "SCALAR"
        }
    ],
    "bufferViews" : [
        {
            "buffer" : 0,
            "byteLength" : 7896,
            "byteOffset" : 0
        },
        {
            "buffer" : 0,
            "byteLength" : 7896,
            "byteOffset" : 7896
        },
        {
            "buffer" : 0,
            "byteLength" : 5264,
            "byteOffset" : 15792
        },
        {
            "buffer" : 0,
            "byteLength" : 1812,
            "byteOffset" : 21056
        },
        {
            "buffer" : 0,
            "byteLength" : 359026,
            "byteOffset" : 22868
        },
        {
            "buffer" : 0,
            "byteLength" : 24192,
            "byteOffset" : 381896
        },
        {
            "buffer" : 0,
            "byteLength" : 24192,
            "byteOffset" : 406088
        },
        {
            "buffer" : 0,
            "byteLength" : 16128,
            "byteOffset" : 430280
        },
        {
            "buffer" : 0,
            "byteLength" : 5544,
            "byteOffset" : 446408
        },
        {
            "buffer" : 0,
            "byteLength" : 334187,
            "byteOffset" : 451952
        }
    ],
    "buffers" : [
        {
            "byteLength" : 786140,
            "uri" : "data:application/octet-stream;base64,"
        }
    ]
}
